<svg width="467px" height="956px" viewBox="0 0 467 956" version="1.1" xmlns="http://www.w3.org/2000/svg"
     xmlns:xlink="http://www.w3.org/1999/xlink">

    <path d="M465.762,329.971 C465.72,329.971 465.569,329.971 465.384,329.971 C464.992,329.971 464.446,329.971 464.446,329.971 C464.344,329.971 464.255,329.971 464.187,329.971 L464.187,330.656 L461.687,330.656 L461.687,217.812 L464.187,217.812 L464.187,218.361 C464.255,218.361 464.344,218.361 464.446,218.361 C464.446,218.361 464.992,218.361 465.384,218.361 C465.569,218.361 465.72,218.361 465.762,218.361 C465.894,218.361 466.157,218.768 466.157,219.039 C466.157,219.175 466.157,329.157 466.157,329.428 C466.157,329.564 465.894,329.971 465.762,329.971 Z"
          id="right-btn" fill="#424B5A"></path>
    <path d="M1.627,353.619 L1.627,353.19 C1.316,353.19 0.547,353.19 0.443,353.19 C0.311,353.19 0.048,352.782 0.048,352.511 C0.048,352.239 0.048,283.671 0.048,283.399 C-0.084,283.127 0.311,282.856 0.443,282.856 C0.547,282.856 1.316,282.856 1.627,282.856 L1.627,281.928 L4.128,281.928 L4.128,353.619 L1.627,353.619 Z"
          id="left-btn3" fill="#424B5A"></path>
    <path d="M1.627,261.501 L1.627,260.859 C1.442,260.859 1.095,260.859 0.822,260.859 C0.636,260.859 0.485,260.859 0.443,260.859 C0.311,260.859 0.048,260.452 0.048,260.181 C0.048,260.045 0.048,191.34 0.048,191.069 C0.048,190.797 0.311,190.525 0.443,190.525 C0.485,190.525 0.636,190.525 0.822,190.525 C1.095,190.525 1.442,190.525 1.627,190.525 L1.627,189.809 L4.128,189.809 L4.128,261.501 L1.627,261.501 Z"
          id="left-btn2" fill="#424B5A"></path>
    <path d="M2.223,160.787 L2.223,160.383 C2.028,160.383 1.734,160.383 1.496,160.383 C1.311,160.383 1.159,160.383 1.117,160.383 C0.985,160.383 0.722,159.975 0.722,159.703 C0.722,159.568 0.722,124.944 0.722,124.673 C0.722,124.401 0.985,124.129 1.117,124.129 C1.159,124.129 1.311,124.129 1.496,124.129 C1.734,124.129 2.028,124.129 2.223,124.129 L2.223,123.177 L4.724,123.177 L4.724,160.787 L2.223,160.787 Z"
          id="left-btn1" fill="#424B5A"></path>
    <path d="M59.013,0 L407.299,0 C437.803,0 462.531,24.728 462.531,55.231 L462.531,898.956 C462.531,929.459 437.803,954.187 407.299,954.187 L59.013,954.187 C28.509,954.187 3.781,929.459 3.781,898.956 L3.781,55.231 C3.781,24.728 28.509,0 59.013,0 Z M446.243,56.204 C446.378,36.713 429.056,16.268 409.838,16.268 C390.621,16.268 358.682,16.268 356.787,16.268 C352.186,16.268 349.209,19.676 348.126,25.809 C344.472,47.617 332.563,49.116 329.044,49.116 C326.067,49.116 140.389,49.116 137.276,49.116 C133.757,49.116 121.713,47.481 118.194,25.809 C117.247,19.676 114.269,16.268 109.533,16.268 C107.503,16.268 75.699,16.268 56.482,16.268 C37.264,16.268 20.077,36.713 20.077,56.204 C20.077,75.695 20.077,877.549 20.077,900.72 C20.077,924.845 44.437,937.93 56.076,937.93 C62.436,937.93 403.884,937.93 410.244,937.93 C421.883,937.93 446.243,924.845 446.243,900.72 C446.243,877.549 446.243,67.244 446.243,56.204 Z"
          id="Combined-Shape" fill="#F2F5F7"></path>
    <path d="M433.7,930.4 C426.4,936.5 417.2,940.3 410.5,940.3 L56.3,940.3 C49.7,940.3 40.4,936.5 33.1,930.4 C24.3,923 19,913.2 19,901.8 L19,57.2 C19,36.5 37.2,16 56.7,16 L109.8,16 C115.2,16 118.7,19.9 119.7,26.6 C121.2,36 124.4,42.1 128.8,45.6 C131.7,47.9 134.8,48.8 137.5,48.8 L329.3,48.8 C332.1,48.8 335.1,47.9 338,45.6 C342.3,42.1 345.5,36 347.1,26.6 C348.3,19.9 351.7,16 357,16 L410.1,16 C429.6,16 447.9,36.6 447.8,57.2 L447.8,901.7 C447.8,913.2 442.5,923 433.7,930.4 Z M410.1,18.6 L357,18.6 C353.2,18.6 350.6,21.4 349.6,27.1 C347.9,37.1 344.4,43.8 339.5,47.7 C336.1,50.4 332.5,51.5 329.2,51.5 L137.5,51.5 C134.2,51.5 130.6,50.4 127.1,47.7 C122.2,43.8 118.7,37.1 117.1,27.1 C116.2,21.5 113.7,18.7 109.7,18.7 L56.7,18.7 C38.7,18.7 21.6,38 21.6,57.3 L21.6,901.8 C21.6,912.4 26.5,921.6 34.8,928.5 C41.6,934.2 50.3,937.8 56.3,937.8 L410.5,937.8 C416.5,937.8 425.2,934.2 432,928.5 C440.3,921.6 445.2,912.4 445.2,901.8 L445.2,60.6 C445.2,58.1 445.2,58.1 445.2,57.2 C445.3,37.9 428.1,18.6 410.1,18.6 Z"
          id="inner" fill="#424B5A"></path>
    <path d="M268.922,19.5 C273.332,19.5 276.906,22.99 276.906,27.297 C276.906,31.603 273.332,35.093 268.922,35.093 C264.512,35.093 260.937,31.603 260.937,27.297 C260.937,22.99 264.512,19.5 268.922,19.5 Z"
          id="Shape" fill="#424B5A"></path>
    <path d="M193.359,23.75 L243.609,23.75 C245.568,23.75 247.156,25.338 247.156,27.297 C247.156,29.256 245.568,30.844 243.609,30.844 L193.359,30.844 C191.4,30.844 189.812,29.256 189.812,27.297 C189.812,25.338 191.4,23.75 193.359,23.75 Z"
          id="Shape" fill="#424B5A"></path>
    <path d="M407.301,955.199 L59.02,955.199 C28.516,955.199 3.788,930.471 3.788,899.967 L3.788,56.231 C3.788,25.727 28.516,0.999 59.02,0.999 L407.301,0.999 C437.805,0.999 462.533,25.727 462.533,56.231 L462.533,899.967 C462.533,930.471 437.805,955.199 407.301,955.199 Z M458.633,56.231 C458.633,27.881 435.651,4.899 407.301,4.899 L59.02,4.899 C30.67,4.899 7.688,27.881 7.688,56.231 L7.688,899.967 C7.688,928.317 30.67,951.299 59.02,951.299 L407.301,951.299 C435.651,951.299 458.633,928.317 458.633,899.967 L458.633,56.231 Z"
          id="outer" fill="#424B5A"></path>

</svg>
